<svg width="108" height="113" viewBox="0 0 108 113" fill="none" xmlns="http://www.w3.org/2000/svg">
<path d="M79.0188 58.7039C82.098 33.5984 66.9828 -7.24156 23.2628 25.1668C42.1163 2.71089 66.2174 11.2326 73.3259 14.8763C78.0594 17.3025 98.0139 30.9195 98.6428 58.6805C99.0173 75.2119 80.6691 78.0648 79.0188 58.7039Z" fill="#954962"/>
<path d="M61.2775 48.6499C59.7459 40.6372 65.9135 6.75047 27.8999 25.5883C45.0022 9.14766 58.7837 15.6819 62.6158 17.2376C66.448 18.7932 78.1173 30.2489 78.3929 48.5024C77.922 58.8486 63.4599 60.0676 61.2775 48.6499Z" fill="#954962"/>
<path d="M52.1652 36.7135C52.2019 32.3095 56.89 18.7185 35.389 22.9905C44.0017 19.7718 50.691 19.9929 54.3999 22.5976C58.1089 25.2023 60.5264 33.4271 59.1004 37.6447C58.2315 40.2148 52.1371 40.0808 52.1652 36.7135Z" fill="#954962"/>
<mask id="path-4-inside-1_1447_5" fill="white">
<path d="M9.48258 75.9721C13.7882 86.7483 21.5318 95.6291 31.394 101.101C41.2561 106.573 52.6266 108.298 63.568 105.982C74.5095 103.666 84.3449 97.4523 91.3984 88.3994C98.452 79.3465 102.287 68.0147 102.251 56.3349C102.214 44.655 98.3082 33.3497 91.1982 24.3453C84.0882 15.3409 74.2141 9.19448 63.2585 6.95332C52.3028 4.71216 40.9433 6.51494 31.1156 12.0545C21.2879 17.594 13.6 26.5276 9.36179 37.333L11.7704 38.3672C15.7799 28.1449 23.053 19.6934 32.3504 14.4527C41.6479 9.21211 52.3944 7.50661 62.7589 9.62684C73.1234 11.7471 82.4646 17.5618 89.191 26.0804C95.9173 34.5989 99.6126 45.2942 99.6471 56.3438C99.6817 67.3934 96.0533 78.1137 89.3804 86.6781C82.7075 95.2425 73.4028 101.121 63.0518 103.312C52.7007 105.503 41.9438 103.871 32.6138 98.6945C23.2838 93.5177 15.958 85.1161 11.8847 74.9214L9.48258 75.9721Z"/>
</mask>
<path d="M9.48258 75.9721C13.7882 86.7483 21.5318 95.6291 31.394 101.101C41.2561 106.573 52.6266 108.298 63.568 105.982C74.5095 103.666 84.3449 97.4523 91.3984 88.3994C98.452 79.3465 102.287 68.0147 102.251 56.3349C102.214 44.655 98.3082 33.3497 91.1982 24.3453C84.0882 15.3409 74.2141 9.19448 63.2585 6.95332C52.3028 4.71216 40.9433 6.51494 31.1156 12.0545C21.2879 17.594 13.6 26.5276 9.36179 37.333L11.7704 38.3672C15.7799 28.1449 23.053 19.6934 32.3504 14.4527C41.6479 9.21211 52.3944 7.50661 62.7589 9.62684C73.1234 11.7471 82.4646 17.5618 89.191 26.0804C95.9173 34.5989 99.6126 45.2942 99.6471 56.3438C99.6817 67.3934 96.0533 78.1137 89.3804 86.6781C82.7075 95.2425 73.4028 101.121 63.0518 103.312C52.7007 105.503 41.9438 103.871 32.6138 98.6945C23.2838 93.5177 15.958 85.1161 11.8847 74.9214L9.48258 75.9721Z" fill="#954962" stroke="#954962" stroke-width="2" mask="url(#path-4-inside-1_1447_5)"/>
<path d="M79.0188 58.7039C82.098 33.5984 66.9828 -7.24156 23.2628 25.1668C42.1163 2.71089 66.2174 11.2326 73.3259 14.8763C78.0594 17.3025 98.0139 30.9195 98.6428 58.6805C99.0173 75.2119 80.6691 78.0648 79.0188 58.7039Z" fill="#954962"/>
<path d="M61.2775 48.6499C59.7459 40.6372 65.9135 6.75047 27.8999 25.5883C45.0022 9.14766 58.7837 15.6819 62.6158 17.2376C66.448 18.7932 78.1173 30.2489 78.3929 48.5024C77.922 58.8486 63.4599 60.0676 61.2775 48.6499Z" fill="#954962"/>
<path d="M52.1652 36.7135C52.2019 32.3095 56.89 18.7185 35.389 22.9905C44.0017 19.7718 50.691 19.9929 54.3999 22.5976C58.1089 25.2023 60.5264 33.4271 59.1004 37.6447C58.2315 40.2148 52.1371 40.0808 52.1652 36.7135Z" fill="#954962"/>
<mask id="path-8-inside-2_1447_5" fill="white">
<path d="M9.48258 75.9721C13.7882 86.7483 21.5318 95.6291 31.394 101.101C41.2561 106.573 52.6266 108.298 63.568 105.982C74.5095 103.666 84.3449 97.4523 91.3984 88.3994C98.452 79.3465 102.287 68.0147 102.251 56.3349C102.214 44.655 98.3082 33.3497 91.1982 24.3453C84.0882 15.3409 74.2141 9.19448 63.2585 6.95332C52.3028 4.71216 40.9433 6.51494 31.1156 12.0545C21.2879 17.594 13.6 26.5276 9.36179 37.333L11.7704 38.3672C15.7799 28.1449 23.053 19.6934 32.3504 14.4527C41.6479 9.21211 52.3944 7.50661 62.7589 9.62684C73.1234 11.7471 82.4646 17.5618 89.191 26.0804C95.9173 34.5989 99.6126 45.2942 99.6471 56.3438C99.6817 67.3934 96.0533 78.1137 89.3804 86.6781C82.7075 95.2425 73.4028 101.121 63.0518 103.312C52.7007 105.503 41.9438 103.871 32.6138 98.6945C23.2838 93.5177 15.958 85.1161 11.8847 74.9214L9.48258 75.9721Z"/>
</mask>
<path d="M9.48258 75.9721C13.7882 86.7483 21.5318 95.6291 31.394 101.101C41.2561 106.573 52.6266 108.298 63.568 105.982C74.5095 103.666 84.3449 97.4523 91.3984 88.3994C98.452 79.3465 102.287 68.0147 102.251 56.3349C102.214 44.655 98.3082 33.3497 91.1982 24.3453C84.0882 15.3409 74.2141 9.19448 63.2585 6.95332C52.3028 4.71216 40.9433 6.51494 31.1156 12.0545C21.2879 17.594 13.6 26.5276 9.36179 37.333L11.7704 38.3672C15.7799 28.1449 23.053 19.6934 32.3504 14.4527C41.6479 9.21211 52.3944 7.50661 62.7589 9.62684C73.1234 11.7471 82.4646 17.5618 89.191 26.0804C95.9173 34.5989 99.6126 45.2942 99.6471 56.3438C99.6817 67.3934 96.0533 78.1137 89.3804 86.6781C82.7075 95.2425 73.4028 101.121 63.0518 103.312C52.7007 105.503 41.9438 103.871 32.6138 98.6945C23.2838 93.5177 15.958 85.1161 11.8847 74.9214L9.48258 75.9721Z" fill="#954962" stroke="#954962" stroke-width="2" mask="url(#path-8-inside-2_1447_5)"/>
</svg>
