<svg width="511" height="567" viewBox="0 0 511 567" fill="none" xmlns="http://www.w3.org/2000/svg">
<path d="M26.1095 150.72C26.1095 106.537 61.9267 70.7199 106.109 70.7199H431C475.183 70.7199 511 106.537 511 150.72V567H26.1095V150.72Z" fill="#E7CECE"/>
<path d="M76.8704 188.199L67.9204 153.199H74.2204L80.3204 177.124L86.4204 153.199H91.9954L98.0954 177.124L104.17 153.199H110.47L101.57 188.199H94.6454L89.1954 166.999L83.8204 188.199H76.8704ZM122.229 188.849C119.929 188.849 117.829 188.257 115.929 187.074C114.046 185.891 112.538 184.299 111.404 182.299C110.288 180.299 109.729 178.091 109.729 175.674C109.729 173.857 110.054 172.157 110.704 170.574C111.354 168.974 112.246 167.574 113.379 166.374C114.529 165.157 115.863 164.207 117.379 163.524C118.896 162.841 120.513 162.499 122.229 162.499C124.179 162.499 125.963 162.916 127.579 163.749C129.213 164.566 130.596 165.691 131.729 167.124C132.863 168.557 133.688 170.191 134.204 172.024C134.721 173.857 134.838 175.774 134.554 177.774H116.279C116.513 178.707 116.896 179.549 117.429 180.299C117.963 181.032 118.638 181.624 119.454 182.074C120.271 182.507 121.196 182.732 122.229 182.749C123.296 182.766 124.263 182.516 125.129 181.999C126.013 181.466 126.746 180.749 127.329 179.849L133.554 181.299C132.538 183.516 131.021 185.332 129.004 186.749C126.988 188.149 124.729 188.849 122.229 188.849ZM116.079 173.199H128.379C128.196 172.199 127.804 171.299 127.204 170.499C126.621 169.682 125.896 169.032 125.029 168.549C124.163 168.066 123.229 167.824 122.229 167.824C121.229 167.824 120.304 168.066 119.454 168.549C118.604 169.016 117.879 169.657 117.279 170.474C116.696 171.274 116.296 172.182 116.079 173.199ZM138.231 188.199V150.699H144.331V188.199H138.231ZM165.45 180.674L170.95 183.649C169.8 185.216 168.358 186.474 166.625 187.424C164.892 188.374 163 188.849 160.95 188.849C158.65 188.849 156.55 188.257 154.65 187.074C152.767 185.891 151.258 184.307 150.125 182.324C149.008 180.324 148.45 178.116 148.45 175.699C148.45 173.866 148.775 172.157 149.425 170.574C150.075 168.974 150.967 167.574 152.1 166.374C153.25 165.157 154.583 164.207 156.1 163.524C157.617 162.841 159.233 162.499 160.95 162.499C163 162.499 164.892 162.974 166.625 163.924C168.358 164.874 169.8 166.149 170.95 167.749L165.45 170.699C164.867 170.032 164.175 169.516 163.375 169.149C162.592 168.782 161.783 168.599 160.95 168.599C159.75 168.599 158.667 168.932 157.7 169.599C156.733 170.249 155.967 171.116 155.4 172.199C154.833 173.266 154.55 174.432 154.55 175.699C154.55 176.949 154.833 178.116 155.4 179.199C155.967 180.266 156.733 181.124 157.7 181.774C158.667 182.424 159.75 182.749 160.95 182.749C161.817 182.749 162.642 182.566 163.425 182.199C164.208 181.816 164.883 181.307 165.45 180.674ZM185.657 188.849C183.357 188.849 181.257 188.257 179.357 187.074C177.474 185.891 175.965 184.307 174.832 182.324C173.715 180.324 173.157 178.116 173.157 175.699C173.157 173.866 173.482 172.157 174.132 170.574C174.782 168.974 175.674 167.574 176.807 166.374C177.957 165.157 179.29 164.207 180.807 163.524C182.324 162.841 183.94 162.499 185.657 162.499C187.957 162.499 190.049 163.091 191.932 164.274C193.832 165.457 195.34 167.049 196.457 169.049C197.59 171.049 198.157 173.266 198.157 175.699C198.157 177.516 197.832 179.216 197.182 180.799C196.532 182.382 195.632 183.782 194.482 184.999C193.349 186.199 192.024 187.141 190.507 187.824C189.007 188.507 187.39 188.849 185.657 188.849ZM185.657 182.749C186.874 182.749 187.965 182.424 188.932 181.774C189.899 181.124 190.657 180.266 191.207 179.199C191.774 178.132 192.057 176.966 192.057 175.699C192.057 174.399 191.765 173.216 191.182 172.149C190.615 171.066 189.84 170.207 188.857 169.574C187.89 168.924 186.824 168.599 185.657 168.599C184.457 168.599 183.374 168.924 182.407 169.574C181.44 170.224 180.674 171.091 180.107 172.174C179.54 173.257 179.257 174.432 179.257 175.699C179.257 177.016 179.549 178.207 180.132 179.274C180.715 180.341 181.49 181.191 182.457 181.824C183.44 182.441 184.507 182.749 185.657 182.749ZM202.05 188.199V163.199H208.15V165.424C209 164.524 210.016 163.816 211.2 163.299C212.383 162.766 213.658 162.499 215.025 162.499C216.758 162.499 218.35 162.907 219.8 163.724C221.266 164.541 222.433 165.632 223.3 166.999C224.183 165.632 225.35 164.541 226.8 163.724C228.25 162.907 229.841 162.499 231.575 162.499C233.408 162.499 235.066 162.949 236.55 163.849C238.05 164.732 239.241 165.924 240.125 167.424C241.025 168.907 241.475 170.566 241.475 172.399V188.199H235.375V174.024C235.375 173.057 235.133 172.174 234.65 171.374C234.183 170.557 233.55 169.907 232.75 169.424C231.966 168.924 231.083 168.674 230.1 168.674C229.116 168.674 228.225 168.916 227.425 169.399C226.641 169.866 226.008 170.499 225.525 171.299C225.041 172.099 224.8 173.007 224.8 174.024V188.199H218.7V174.024C218.7 173.007 218.466 172.099 218 171.299C217.533 170.499 216.9 169.866 216.1 169.399C215.3 168.916 214.408 168.674 213.425 168.674C212.458 168.674 211.575 168.924 210.775 169.424C209.975 169.907 209.333 170.557 208.85 171.374C208.383 172.174 208.15 173.057 208.15 174.024V188.199H202.05ZM256.995 188.849C254.695 188.849 252.595 188.257 250.695 187.074C248.812 185.891 247.303 184.299 246.17 182.299C245.053 180.299 244.495 178.091 244.495 175.674C244.495 173.857 244.82 172.157 245.47 170.574C246.12 168.974 247.012 167.574 248.145 166.374C249.295 165.157 250.628 164.207 252.145 163.524C253.662 162.841 255.278 162.499 256.995 162.499C258.945 162.499 260.728 162.916 262.345 163.749C263.978 164.566 265.362 165.691 266.495 167.124C267.628 168.557 268.453 170.191 268.97 172.024C269.487 173.857 269.603 175.774 269.32 177.774H251.045C251.278 178.707 251.662 179.549 252.195 180.299C252.728 181.032 253.403 181.624 254.22 182.074C255.037 182.507 255.962 182.732 256.995 182.749C258.062 182.766 259.028 182.516 259.895 181.999C260.778 181.466 261.512 180.749 262.095 179.849L268.32 181.299C267.303 183.516 265.787 185.332 263.77 186.749C261.753 188.149 259.495 188.849 256.995 188.849ZM250.845 173.199H263.145C262.962 172.199 262.57 171.299 261.97 170.499C261.387 169.682 260.662 169.032 259.795 168.549C258.928 168.066 257.995 167.824 256.995 167.824C255.995 167.824 255.07 168.066 254.22 168.549C253.37 169.016 252.645 169.657 252.045 170.474C251.462 171.274 251.062 172.182 250.845 173.199Z" fill="#393432"/>
<rect x="65.8954" y="388.339" width="404.075" height="86.849" rx="35" fill="#FBF2EA"/>
<path d="M234.385 434.109C233.689 434.109 233.02 434.001 232.378 433.785C231.742 433.563 231.184 433.248 230.704 432.84C230.224 432.426 229.879 431.931 229.669 431.355L231.73 430.599C231.814 430.839 231.985 431.058 232.243 431.256C232.501 431.454 232.816 431.613 233.188 431.733C233.56 431.853 233.959 431.913 234.385 431.913C234.823 431.913 235.231 431.847 235.609 431.715C235.993 431.577 236.302 431.388 236.536 431.148C236.77 430.902 236.887 430.617 236.887 430.293C236.887 429.963 236.764 429.693 236.518 429.483C236.272 429.267 235.957 429.096 235.573 428.97C235.189 428.844 234.793 428.748 234.385 428.682C233.491 428.544 232.69 428.331 231.982 428.043C231.274 427.755 230.713 427.356 230.299 426.846C229.891 426.336 229.687 425.676 229.687 424.866C229.687 424.104 229.906 423.438 230.344 422.868C230.782 422.298 231.358 421.854 232.072 421.536C232.786 421.218 233.557 421.059 234.385 421.059C235.075 421.059 235.741 421.167 236.383 421.383C237.025 421.599 237.586 421.914 238.066 422.328C238.552 422.742 238.9 423.24 239.11 423.822L237.04 424.569C236.956 424.329 236.785 424.11 236.527 423.912C236.269 423.714 235.954 423.558 235.582 423.444C235.21 423.324 234.811 423.264 234.385 423.264C233.959 423.258 233.554 423.327 233.17 423.471C232.792 423.609 232.483 423.798 232.243 424.038C232.003 424.278 231.883 424.554 231.883 424.866C231.883 425.268 231.994 425.571 232.216 425.775C232.444 425.979 232.747 426.129 233.125 426.225C233.503 426.315 233.923 426.399 234.385 426.477C235.225 426.609 236.002 426.831 236.716 427.143C237.43 427.455 238.003 427.872 238.435 428.394C238.867 428.91 239.083 429.543 239.083 430.293C239.083 431.055 238.867 431.724 238.435 432.3C238.003 432.87 237.43 433.314 236.716 433.632C236.002 433.95 235.225 434.109 234.385 434.109ZM240.87 424.875H243.066V433.875H240.87V424.875ZM241.986 423.714C241.662 423.714 241.389 423.609 241.167 423.399C240.945 423.183 240.834 422.913 240.834 422.589C240.834 422.271 240.945 422.004 241.167 421.788C241.389 421.572 241.659 421.464 241.977 421.464C242.295 421.464 242.562 421.572 242.778 421.788C243 422.004 243.111 422.271 243.111 422.589C243.111 422.913 243.003 423.183 242.787 423.399C242.571 423.609 242.304 423.714 241.986 423.714ZM251.697 424.875H253.893V434.046C253.893 434.694 253.761 435.282 253.497 435.81C253.233 436.344 252.873 436.8 252.417 437.178C251.961 437.562 251.439 437.856 250.851 438.06C250.263 438.27 249.645 438.375 248.997 438.375C248.367 438.375 247.761 438.246 247.179 437.988C246.597 437.73 246.081 437.376 245.631 436.926C245.187 436.482 244.848 435.975 244.614 435.405L246.621 434.496C246.741 434.826 246.921 435.114 247.161 435.36C247.407 435.612 247.689 435.807 248.007 435.945C248.325 436.089 248.655 436.161 248.997 436.161C249.345 436.161 249.678 436.113 249.996 436.017C250.32 435.921 250.611 435.78 250.869 435.594C251.127 435.414 251.328 435.192 251.472 434.928C251.622 434.67 251.697 434.376 251.697 434.046V432.777C251.415 433.173 251.061 433.494 250.635 433.74C250.209 433.986 249.717 434.109 249.159 434.109C248.511 434.109 247.905 433.986 247.341 433.74C246.777 433.494 246.279 433.155 245.847 432.723C245.421 432.285 245.085 431.781 244.839 431.211C244.599 430.641 244.479 430.029 244.479 429.375C244.479 428.721 244.599 428.109 244.839 427.539C245.085 426.969 245.421 426.468 245.847 426.036C246.279 425.598 246.777 425.256 247.341 425.01C247.905 424.764 248.511 424.641 249.159 424.641C249.717 424.641 250.209 424.764 250.635 425.01C251.061 425.25 251.415 425.568 251.697 425.964V424.875ZM249.186 431.994C249.648 431.994 250.056 431.877 250.41 431.643C250.77 431.403 251.052 431.085 251.256 430.689C251.46 430.287 251.562 429.849 251.562 429.375C251.562 428.895 251.457 428.457 251.247 428.061C251.043 427.665 250.761 427.347 250.401 427.107C250.047 426.867 249.642 426.747 249.186 426.747C248.736 426.747 248.325 426.867 247.953 427.107C247.581 427.341 247.284 427.656 247.062 428.052C246.84 428.448 246.729 428.889 246.729 429.375C246.729 429.861 246.84 430.302 247.062 430.698C247.284 431.094 247.581 431.409 247.953 431.643C248.325 431.877 248.736 431.994 249.186 431.994ZM264.302 428.187V433.875H262.106V428.763C262.106 428.409 262.019 428.088 261.845 427.8C261.671 427.506 261.437 427.275 261.143 427.107C260.855 426.933 260.534 426.846 260.18 426.846C259.826 426.846 259.502 426.933 259.208 427.107C258.92 427.275 258.689 427.506 258.515 427.8C258.347 428.088 258.263 428.409 258.263 428.763V433.875H256.067L256.058 424.875H258.254L258.263 425.676C258.569 425.352 258.935 425.097 259.361 424.911C259.787 424.719 260.246 424.623 260.738 424.623C261.392 424.623 261.989 424.785 262.529 425.109C263.069 425.427 263.498 425.856 263.816 426.396C264.14 426.93 264.302 427.527 264.302 428.187ZM270.059 430.545V424.875H272.255V429.969C272.255 430.323 272.342 430.647 272.516 430.941C272.69 431.229 272.921 431.46 273.209 431.634C273.503 431.802 273.824 431.886 274.172 431.886C274.532 431.886 274.856 431.802 275.144 431.634C275.432 431.46 275.663 431.229 275.837 430.941C276.011 430.647 276.098 430.323 276.098 429.969V424.875H278.294L278.303 433.875H276.107L276.098 433.056C275.786 433.38 275.417 433.638 274.991 433.83C274.565 434.016 274.109 434.109 273.623 434.109C272.969 434.109 272.372 433.95 271.832 433.632C271.292 433.308 270.86 432.879 270.536 432.345C270.218 431.805 270.059 431.205 270.059 430.545ZM281.896 438.375H279.7V424.875H281.896V426.018C282.19 425.61 282.55 425.28 282.976 425.028C283.408 424.77 283.912 424.641 284.488 424.641C285.148 424.641 285.763 424.764 286.333 425.01C286.903 425.256 287.404 425.598 287.836 426.036C288.274 426.468 288.613 426.969 288.853 427.539C289.099 428.109 289.222 428.721 289.222 429.375C289.222 430.029 289.099 430.644 288.853 431.22C288.613 431.796 288.274 432.303 287.836 432.741C287.404 433.173 286.903 433.512 286.333 433.758C285.763 434.004 285.148 434.127 284.488 434.127C283.912 434.127 283.408 434.001 282.976 433.749C282.55 433.491 282.19 433.158 281.896 432.75V438.375ZM284.461 426.756C284.005 426.756 283.597 426.876 283.237 427.116C282.877 427.35 282.595 427.665 282.391 428.061C282.187 428.457 282.085 428.895 282.085 429.375C282.085 429.855 282.187 430.296 282.391 430.698C282.595 431.094 282.877 431.412 283.237 431.652C283.597 431.886 284.005 432.003 284.461 432.003C284.923 432.003 285.346 431.886 285.73 431.652C286.114 431.418 286.42 431.103 286.648 430.707C286.876 430.305 286.99 429.861 286.99 429.375C286.99 428.895 286.876 428.457 286.648 428.061C286.42 427.665 286.114 427.35 285.73 427.116C285.352 426.876 284.929 426.756 284.461 426.756Z" fill="black"/>
<rect x="65.8954" y="264.269" width="404.075" height="86.849" rx="35" fill="#393432"/>
<path d="M235.628 310.039C234.932 310.039 234.263 309.931 233.621 309.715C232.985 309.493 232.427 309.178 231.947 308.77C231.467 308.356 231.122 307.861 230.912 307.285L232.973 306.529C233.057 306.769 233.228 306.988 233.486 307.186C233.744 307.384 234.059 307.543 234.431 307.663C234.803 307.783 235.202 307.843 235.628 307.843C236.066 307.843 236.474 307.777 236.852 307.645C237.236 307.507 237.545 307.318 237.779 307.078C238.013 306.832 238.13 306.547 238.13 306.223C238.13 305.893 238.007 305.623 237.761 305.413C237.515 305.197 237.2 305.026 236.816 304.9C236.432 304.774 236.036 304.678 235.628 304.612C234.734 304.474 233.933 304.261 233.225 303.973C232.517 303.685 231.956 303.286 231.542 302.776C231.134 302.266 230.93 301.606 230.93 300.796C230.93 300.034 231.149 299.368 231.587 298.798C232.025 298.228 232.601 297.784 233.315 297.466C234.029 297.148 234.8 296.989 235.628 296.989C236.318 296.989 236.984 297.097 237.626 297.313C238.268 297.529 238.829 297.844 239.309 298.258C239.795 298.672 240.143 299.17 240.353 299.752L238.283 300.499C238.199 300.259 238.028 300.04 237.77 299.842C237.512 299.644 237.197 299.488 236.825 299.374C236.453 299.254 236.054 299.194 235.628 299.194C235.202 299.188 234.797 299.257 234.413 299.401C234.035 299.539 233.726 299.728 233.486 299.968C233.246 300.208 233.126 300.484 233.126 300.796C233.126 301.198 233.237 301.501 233.459 301.705C233.687 301.909 233.99 302.059 234.368 302.155C234.746 302.245 235.166 302.329 235.628 302.407C236.468 302.539 237.245 302.761 237.959 303.073C238.673 303.385 239.246 303.802 239.678 304.324C240.11 304.84 240.326 305.473 240.326 306.223C240.326 306.985 240.11 307.654 239.678 308.23C239.246 308.8 238.673 309.244 237.959 309.562C237.245 309.88 236.468 310.039 235.628 310.039ZM242.114 300.805H244.31V309.805H242.114V300.805ZM243.23 299.644C242.906 299.644 242.633 299.539 242.411 299.329C242.189 299.113 242.078 298.843 242.078 298.519C242.078 298.201 242.189 297.934 242.411 297.718C242.633 297.502 242.903 297.394 243.221 297.394C243.539 297.394 243.806 297.502 244.022 297.718C244.244 297.934 244.355 298.201 244.355 298.519C244.355 298.843 244.247 299.113 244.031 299.329C243.815 299.539 243.548 299.644 243.23 299.644ZM252.94 300.805H255.136V309.976C255.136 310.624 255.004 311.212 254.74 311.74C254.476 312.274 254.116 312.73 253.66 313.108C253.204 313.492 252.682 313.786 252.094 313.99C251.506 314.2 250.888 314.305 250.24 314.305C249.61 314.305 249.004 314.176 248.422 313.918C247.84 313.66 247.324 313.306 246.874 312.856C246.43 312.412 246.091 311.905 245.857 311.335L247.864 310.426C247.984 310.756 248.164 311.044 248.404 311.29C248.65 311.542 248.932 311.737 249.25 311.875C249.568 312.019 249.898 312.091 250.24 312.091C250.588 312.091 250.921 312.043 251.239 311.947C251.563 311.851 251.854 311.71 252.112 311.524C252.37 311.344 252.571 311.122 252.715 310.858C252.865 310.6 252.94 310.306 252.94 309.976V308.707C252.658 309.103 252.304 309.424 251.878 309.67C251.452 309.916 250.96 310.039 250.402 310.039C249.754 310.039 249.148 309.916 248.584 309.67C248.02 309.424 247.522 309.085 247.09 308.653C246.664 308.215 246.328 307.711 246.082 307.141C245.842 306.571 245.722 305.959 245.722 305.305C245.722 304.651 245.842 304.039 246.082 303.469C246.328 302.899 246.664 302.398 247.09 301.966C247.522 301.528 248.02 301.186 248.584 300.94C249.148 300.694 249.754 300.571 250.402 300.571C250.96 300.571 251.452 300.694 251.878 300.94C252.304 301.18 252.658 301.498 252.94 301.894V300.805ZM250.429 307.924C250.891 307.924 251.299 307.807 251.653 307.573C252.013 307.333 252.295 307.015 252.499 306.619C252.703 306.217 252.805 305.779 252.805 305.305C252.805 304.825 252.7 304.387 252.49 303.991C252.286 303.595 252.004 303.277 251.644 303.037C251.29 302.797 250.885 302.677 250.429 302.677C249.979 302.677 249.568 302.797 249.196 303.037C248.824 303.271 248.527 303.586 248.305 303.982C248.083 304.378 247.972 304.819 247.972 305.305C247.972 305.791 248.083 306.232 248.305 306.628C248.527 307.024 248.824 307.339 249.196 307.573C249.568 307.807 249.979 307.924 250.429 307.924ZM265.545 304.117V309.805H263.349V304.693C263.349 304.339 263.262 304.018 263.088 303.73C262.914 303.436 262.68 303.205 262.386 303.037C262.098 302.863 261.777 302.776 261.423 302.776C261.069 302.776 260.745 302.863 260.451 303.037C260.163 303.205 259.932 303.436 259.758 303.73C259.59 304.018 259.506 304.339 259.506 304.693V309.805H257.31L257.301 300.805H259.497L259.506 301.606C259.812 301.282 260.178 301.027 260.604 300.841C261.03 300.649 261.489 300.553 261.981 300.553C262.635 300.553 263.232 300.715 263.772 301.039C264.312 301.357 264.741 301.786 265.059 302.326C265.383 302.86 265.545 303.457 265.545 304.117ZM271.663 300.805H273.859V309.805H271.663V300.805ZM272.779 299.644C272.455 299.644 272.182 299.539 271.96 299.329C271.738 299.113 271.627 298.843 271.627 298.519C271.627 298.201 271.738 297.934 271.96 297.718C272.182 297.502 272.452 297.394 272.77 297.394C273.088 297.394 273.355 297.502 273.571 297.718C273.793 297.934 273.904 298.201 273.904 298.519C273.904 298.843 273.796 299.113 273.58 299.329C273.364 299.539 273.097 299.644 272.779 299.644ZM284.196 304.117V309.805H282V304.693C282 304.339 281.913 304.018 281.739 303.73C281.565 303.436 281.331 303.205 281.037 303.037C280.749 302.863 280.428 302.776 280.074 302.776C279.72 302.776 279.396 302.863 279.102 303.037C278.814 303.205 278.583 303.436 278.409 303.73C278.241 304.018 278.157 304.339 278.157 304.693V309.805H275.961L275.952 300.805H278.148L278.157 301.606C278.463 301.282 278.829 301.027 279.255 300.841C279.681 300.649 280.14 300.553 280.632 300.553C281.286 300.553 281.883 300.715 282.423 301.039C282.963 301.357 283.392 301.786 283.71 302.326C284.034 302.86 284.196 303.457 284.196 304.117Z" fill="white"/>
</svg>
