<svg width="501" height="547" viewBox="0 0 501 547" fill="none" xmlns="http://www.w3.org/2000/svg">
<g filter="url(#filter0_f_1447_17)">
<circle cx="146.5" cy="146.5" r="56.5" fill="#AB627A" fill-opacity="0.25"/>
</g>
<path d="M111 227C111 182.817 146.817 147 191 147H421C465.183 147 501 182.817 501 227V547H111V227Z" fill="#E7CECE"/>
<path d="M153.975 251L145.025 216H151.325L157.425 239.925L163.525 216H169.1L175.2 239.925L181.275 216H187.575L178.675 251H171.75L166.3 229.8L160.925 251H153.975ZM199.334 251.65C197.034 251.65 194.934 251.058 193.034 249.875C191.151 248.692 189.642 247.1 188.509 245.1C187.392 243.1 186.834 240.892 186.834 238.475C186.834 236.658 187.159 234.958 187.809 233.375C188.459 231.775 189.351 230.375 190.484 229.175C191.634 227.958 192.967 227.008 194.484 226.325C196.001 225.642 197.617 225.3 199.334 225.3C201.284 225.3 203.067 225.717 204.684 226.55C206.317 227.367 207.701 228.492 208.834 229.925C209.967 231.358 210.792 232.992 211.309 234.825C211.826 236.658 211.942 238.575 211.659 240.575H193.384C193.617 241.508 194.001 242.35 194.534 243.1C195.067 243.833 195.742 244.425 196.559 244.875C197.376 245.308 198.301 245.533 199.334 245.55C200.401 245.567 201.367 245.317 202.234 244.8C203.117 244.267 203.851 243.55 204.434 242.65L210.659 244.1C209.642 246.317 208.126 248.133 206.109 249.55C204.092 250.95 201.834 251.65 199.334 251.65ZM193.184 236H205.484C205.301 235 204.909 234.1 204.309 233.3C203.726 232.483 203.001 231.833 202.134 231.35C201.267 230.867 200.334 230.625 199.334 230.625C198.334 230.625 197.409 230.867 196.559 231.35C195.709 231.817 194.984 232.458 194.384 233.275C193.801 234.075 193.401 234.983 193.184 236ZM215.336 251V213.5H221.436V251H215.336ZM242.555 243.475L248.055 246.45C246.905 248.017 245.463 249.275 243.73 250.225C241.996 251.175 240.105 251.65 238.055 251.65C235.755 251.65 233.655 251.058 231.755 249.875C229.871 248.692 228.363 247.108 227.23 245.125C226.113 243.125 225.555 240.917 225.555 238.5C225.555 236.667 225.88 234.958 226.53 233.375C227.18 231.775 228.071 230.375 229.205 229.175C230.355 227.958 231.688 227.008 233.205 226.325C234.721 225.642 236.338 225.3 238.055 225.3C240.105 225.3 241.996 225.775 243.73 226.725C245.463 227.675 246.905 228.95 248.055 230.55L242.555 233.5C241.971 232.833 241.28 232.317 240.48 231.95C239.696 231.583 238.888 231.4 238.055 231.4C236.855 231.4 235.771 231.733 234.805 232.4C233.838 233.05 233.071 233.917 232.505 235C231.938 236.067 231.655 237.233 231.655 238.5C231.655 239.75 231.938 240.917 232.505 242C233.071 243.067 233.838 243.925 234.805 244.575C235.771 245.225 236.855 245.55 238.055 245.55C238.921 245.55 239.746 245.367 240.53 245C241.313 244.617 241.988 244.108 242.555 243.475ZM262.762 251.65C260.462 251.65 258.362 251.058 256.462 249.875C254.578 248.692 253.07 247.108 251.937 245.125C250.82 243.125 250.262 240.917 250.262 238.5C250.262 236.667 250.587 234.958 251.237 233.375C251.887 231.775 252.778 230.375 253.912 229.175C255.062 227.958 256.395 227.008 257.912 226.325C259.428 225.642 261.045 225.3 262.762 225.3C265.062 225.3 267.153 225.892 269.037 227.075C270.937 228.258 272.445 229.85 273.562 231.85C274.695 233.85 275.262 236.067 275.262 238.5C275.262 240.317 274.937 242.017 274.287 243.6C273.637 245.183 272.737 246.583 271.587 247.8C270.453 249 269.128 249.942 267.612 250.625C266.112 251.308 264.495 251.65 262.762 251.65ZM262.762 245.55C263.978 245.55 265.07 245.225 266.037 244.575C267.003 243.925 267.762 243.067 268.312 242C268.878 240.933 269.162 239.767 269.162 238.5C269.162 237.2 268.87 236.017 268.287 234.95C267.72 233.867 266.945 233.008 265.962 232.375C264.995 231.725 263.928 231.4 262.762 231.4C261.562 231.4 260.478 231.725 259.512 232.375C258.545 233.025 257.778 233.892 257.212 234.975C256.645 236.058 256.362 237.233 256.362 238.5C256.362 239.817 256.653 241.008 257.237 242.075C257.82 243.142 258.595 243.992 259.562 244.625C260.545 245.242 261.612 245.55 262.762 245.55ZM279.154 251V226H285.254V228.225C286.104 227.325 287.121 226.617 288.304 226.1C289.488 225.567 290.763 225.3 292.129 225.3C293.863 225.3 295.454 225.708 296.904 226.525C298.371 227.342 299.538 228.433 300.404 229.8C301.288 228.433 302.454 227.342 303.904 226.525C305.354 225.708 306.946 225.3 308.679 225.3C310.513 225.3 312.171 225.75 313.654 226.65C315.154 227.533 316.346 228.725 317.229 230.225C318.129 231.708 318.579 233.367 318.579 235.2V251H312.479V236.825C312.479 235.858 312.238 234.975 311.754 234.175C311.288 233.358 310.654 232.708 309.854 232.225C309.071 231.725 308.188 231.475 307.204 231.475C306.221 231.475 305.329 231.717 304.529 232.2C303.746 232.667 303.113 233.3 302.629 234.1C302.146 234.9 301.904 235.808 301.904 236.825V251H295.804V236.825C295.804 235.808 295.571 234.9 295.104 234.1C294.638 233.3 294.004 232.667 293.204 232.2C292.404 231.717 291.513 231.475 290.529 231.475C289.563 231.475 288.679 231.725 287.879 232.225C287.079 232.708 286.438 233.358 285.954 234.175C285.488 234.975 285.254 235.858 285.254 236.825V251H279.154ZM334.1 251.65C331.8 251.65 329.7 251.058 327.8 249.875C325.916 248.692 324.408 247.1 323.275 245.1C322.158 243.1 321.6 240.892 321.6 238.475C321.6 236.658 321.925 234.958 322.575 233.375C323.225 231.775 324.116 230.375 325.25 229.175C326.4 227.958 327.733 227.008 329.25 226.325C330.766 225.642 332.383 225.3 334.1 225.3C336.05 225.3 337.833 225.717 339.45 226.55C341.083 227.367 342.466 228.492 343.6 229.925C344.733 231.358 345.558 232.992 346.075 234.825C346.591 236.658 346.708 238.575 346.425 240.575H328.15C328.383 241.508 328.766 242.35 329.3 243.1C329.833 243.833 330.508 244.425 331.325 244.875C332.141 245.308 333.066 245.533 334.1 245.55C335.166 245.567 336.133 245.317 337 244.8C337.883 244.267 338.616 243.55 339.2 242.65L345.425 244.1C344.408 246.317 342.891 248.133 340.875 249.55C338.858 250.95 336.6 251.65 334.1 251.65ZM327.95 236H340.25C340.066 235 339.675 234.1 339.075 233.3C338.491 232.483 337.766 231.833 336.9 231.35C336.033 230.867 335.1 230.625 334.1 230.625C333.1 230.625 332.175 230.867 331.325 231.35C330.475 231.817 329.75 232.458 329.15 233.275C328.566 234.075 328.166 234.983 327.95 236Z" fill="#393432"/>
<rect x="143" y="403" width="325" height="70" rx="35" fill="#FBF2EA"/>
<path d="M279.616 443.234C278.92 443.234 278.251 443.126 277.609 442.91C276.973 442.688 276.415 442.373 275.935 441.965C275.455 441.551 275.11 441.056 274.9 440.48L276.961 439.724C277.045 439.964 277.216 440.183 277.474 440.381C277.732 440.579 278.047 440.738 278.419 440.858C278.791 440.978 279.19 441.038 279.616 441.038C280.054 441.038 280.462 440.972 280.84 440.84C281.224 440.702 281.533 440.513 281.767 440.273C282.001 440.027 282.118 439.742 282.118 439.418C282.118 439.088 281.995 438.818 281.749 438.608C281.503 438.392 281.188 438.221 280.804 438.095C280.42 437.969 280.024 437.873 279.616 437.807C278.722 437.669 277.921 437.456 277.213 437.168C276.505 436.88 275.944 436.481 275.53 435.971C275.122 435.461 274.918 434.801 274.918 433.991C274.918 433.229 275.137 432.563 275.575 431.993C276.013 431.423 276.589 430.979 277.303 430.661C278.017 430.343 278.788 430.184 279.616 430.184C280.306 430.184 280.972 430.292 281.614 430.508C282.256 430.724 282.817 431.039 283.297 431.453C283.783 431.867 284.131 432.365 284.341 432.947L282.271 433.694C282.187 433.454 282.016 433.235 281.758 433.037C281.5 432.839 281.185 432.683 280.813 432.569C280.441 432.449 280.042 432.389 279.616 432.389C279.19 432.383 278.785 432.452 278.401 432.596C278.023 432.734 277.714 432.923 277.474 433.163C277.234 433.403 277.114 433.679 277.114 433.991C277.114 434.393 277.225 434.696 277.447 434.9C277.675 435.104 277.978 435.254 278.356 435.35C278.734 435.44 279.154 435.524 279.616 435.602C280.456 435.734 281.233 435.956 281.947 436.268C282.661 436.58 283.234 436.997 283.666 437.519C284.098 438.035 284.314 438.668 284.314 439.418C284.314 440.18 284.098 440.849 283.666 441.425C283.234 441.995 282.661 442.439 281.947 442.757C281.233 443.075 280.456 443.234 279.616 443.234ZM286.101 434H288.297V443H286.101V434ZM287.217 432.839C286.893 432.839 286.62 432.734 286.398 432.524C286.176 432.308 286.065 432.038 286.065 431.714C286.065 431.396 286.176 431.129 286.398 430.913C286.62 430.697 286.89 430.589 287.208 430.589C287.526 430.589 287.793 430.697 288.009 430.913C288.231 431.129 288.342 431.396 288.342 431.714C288.342 432.038 288.234 432.308 288.018 432.524C287.802 432.734 287.535 432.839 287.217 432.839ZM296.928 434H299.124V443.171C299.124 443.819 298.992 444.407 298.728 444.935C298.464 445.469 298.104 445.925 297.648 446.303C297.192 446.687 296.67 446.981 296.082 447.185C295.494 447.395 294.876 447.5 294.228 447.5C293.598 447.5 292.992 447.371 292.41 447.113C291.828 446.855 291.312 446.501 290.862 446.051C290.418 445.607 290.079 445.1 289.845 444.53L291.852 443.621C291.972 443.951 292.152 444.239 292.392 444.485C292.638 444.737 292.92 444.932 293.238 445.07C293.556 445.214 293.886 445.286 294.228 445.286C294.576 445.286 294.909 445.238 295.227 445.142C295.551 445.046 295.842 444.905 296.1 444.719C296.358 444.539 296.559 444.317 296.703 444.053C296.853 443.795 296.928 443.501 296.928 443.171V441.902C296.646 442.298 296.292 442.619 295.866 442.865C295.44 443.111 294.948 443.234 294.39 443.234C293.742 443.234 293.136 443.111 292.572 442.865C292.008 442.619 291.51 442.28 291.078 441.848C290.652 441.41 290.316 440.906 290.07 440.336C289.83 439.766 289.71 439.154 289.71 438.5C289.71 437.846 289.83 437.234 290.07 436.664C290.316 436.094 290.652 435.593 291.078 435.161C291.51 434.723 292.008 434.381 292.572 434.135C293.136 433.889 293.742 433.766 294.39 433.766C294.948 433.766 295.44 433.889 295.866 434.135C296.292 434.375 296.646 434.693 296.928 435.089V434ZM294.417 441.119C294.879 441.119 295.287 441.002 295.641 440.768C296.001 440.528 296.283 440.21 296.487 439.814C296.691 439.412 296.793 438.974 296.793 438.5C296.793 438.02 296.688 437.582 296.478 437.186C296.274 436.79 295.992 436.472 295.632 436.232C295.278 435.992 294.873 435.872 294.417 435.872C293.967 435.872 293.556 435.992 293.184 436.232C292.812 436.466 292.515 436.781 292.293 437.177C292.071 437.573 291.96 438.014 291.96 438.5C291.96 438.986 292.071 439.427 292.293 439.823C292.515 440.219 292.812 440.534 293.184 440.768C293.556 441.002 293.967 441.119 294.417 441.119ZM309.533 437.312V443H307.337V437.888C307.337 437.534 307.25 437.213 307.076 436.925C306.902 436.631 306.668 436.4 306.374 436.232C306.086 436.058 305.765 435.971 305.411 435.971C305.057 435.971 304.733 436.058 304.439 436.232C304.151 436.4 303.92 436.631 303.746 436.925C303.578 437.213 303.494 437.534 303.494 437.888V443H301.298L301.289 434H303.485L303.494 434.801C303.8 434.477 304.166 434.222 304.592 434.036C305.018 433.844 305.477 433.748 305.969 433.748C306.623 433.748 307.22 433.91 307.76 434.234C308.3 434.552 308.729 434.981 309.047 435.521C309.371 436.055 309.533 436.652 309.533 437.312ZM315.29 439.67V434H317.486V439.094C317.486 439.448 317.573 439.772 317.747 440.066C317.921 440.354 318.152 440.585 318.44 440.759C318.734 440.927 319.055 441.011 319.403 441.011C319.763 441.011 320.087 440.927 320.375 440.759C320.663 440.585 320.894 440.354 321.068 440.066C321.242 439.772 321.329 439.448 321.329 439.094V434H323.525L323.534 443H321.338L321.329 442.181C321.017 442.505 320.648 442.763 320.222 442.955C319.796 443.141 319.34 443.234 318.854 443.234C318.2 443.234 317.603 443.075 317.063 442.757C316.523 442.433 316.091 442.004 315.767 441.47C315.449 440.93 315.29 440.33 315.29 439.67ZM327.128 447.5H324.932V434H327.128V435.143C327.422 434.735 327.782 434.405 328.208 434.153C328.64 433.895 329.144 433.766 329.72 433.766C330.38 433.766 330.995 433.889 331.565 434.135C332.135 434.381 332.636 434.723 333.068 435.161C333.506 435.593 333.845 436.094 334.085 436.664C334.331 437.234 334.454 437.846 334.454 438.5C334.454 439.154 334.331 439.769 334.085 440.345C333.845 440.921 333.506 441.428 333.068 441.866C332.636 442.298 332.135 442.637 331.565 442.883C330.995 443.129 330.38 443.252 329.72 443.252C329.144 443.252 328.64 443.126 328.208 442.874C327.782 442.616 327.422 442.283 327.128 441.875V447.5ZM329.693 435.881C329.237 435.881 328.829 436.001 328.469 436.241C328.109 436.475 327.827 436.79 327.623 437.186C327.419 437.582 327.317 438.02 327.317 438.5C327.317 438.98 327.419 439.421 327.623 439.823C327.827 440.219 328.109 440.537 328.469 440.777C328.829 441.011 329.237 441.128 329.693 441.128C330.155 441.128 330.578 441.011 330.962 440.777C331.346 440.543 331.652 440.228 331.88 439.832C332.108 439.43 332.222 438.986 332.222 438.5C332.222 438.02 332.108 437.582 331.88 437.186C331.652 436.79 331.346 436.475 330.962 436.241C330.584 436.001 330.161 435.881 329.693 435.881Z" fill="black"/>
<rect x="143" y="303" width="325" height="70" rx="35" fill="#393432"/>
<path d="M280.616 343.234C279.92 343.234 279.251 343.126 278.609 342.91C277.973 342.688 277.415 342.373 276.935 341.965C276.455 341.551 276.11 341.056 275.9 340.48L277.961 339.724C278.045 339.964 278.216 340.183 278.474 340.381C278.732 340.579 279.047 340.738 279.419 340.858C279.791 340.978 280.19 341.038 280.616 341.038C281.054 341.038 281.462 340.972 281.84 340.84C282.224 340.702 282.533 340.513 282.767 340.273C283.001 340.027 283.118 339.742 283.118 339.418C283.118 339.088 282.995 338.818 282.749 338.608C282.503 338.392 282.188 338.221 281.804 338.095C281.42 337.969 281.024 337.873 280.616 337.807C279.722 337.669 278.921 337.456 278.213 337.168C277.505 336.88 276.944 336.481 276.53 335.971C276.122 335.461 275.918 334.801 275.918 333.991C275.918 333.229 276.137 332.563 276.575 331.993C277.013 331.423 277.589 330.979 278.303 330.661C279.017 330.343 279.788 330.184 280.616 330.184C281.306 330.184 281.972 330.292 282.614 330.508C283.256 330.724 283.817 331.039 284.297 331.453C284.783 331.867 285.131 332.365 285.341 332.947L283.271 333.694C283.187 333.454 283.016 333.235 282.758 333.037C282.5 332.839 282.185 332.683 281.813 332.569C281.441 332.449 281.042 332.389 280.616 332.389C280.19 332.383 279.785 332.452 279.401 332.596C279.023 332.734 278.714 332.923 278.474 333.163C278.234 333.403 278.114 333.679 278.114 333.991C278.114 334.393 278.225 334.696 278.447 334.9C278.675 335.104 278.978 335.254 279.356 335.35C279.734 335.44 280.154 335.524 280.616 335.602C281.456 335.734 282.233 335.956 282.947 336.268C283.661 336.58 284.234 336.997 284.666 337.519C285.098 338.035 285.314 338.668 285.314 339.418C285.314 340.18 285.098 340.849 284.666 341.425C284.234 341.995 283.661 342.439 282.947 342.757C282.233 343.075 281.456 343.234 280.616 343.234ZM287.101 334H289.297V343H287.101V334ZM288.217 332.839C287.893 332.839 287.62 332.734 287.398 332.524C287.176 332.308 287.065 332.038 287.065 331.714C287.065 331.396 287.176 331.129 287.398 330.913C287.62 330.697 287.89 330.589 288.208 330.589C288.526 330.589 288.793 330.697 289.009 330.913C289.231 331.129 289.342 331.396 289.342 331.714C289.342 332.038 289.234 332.308 289.018 332.524C288.802 332.734 288.535 332.839 288.217 332.839ZM297.928 334H300.124V343.171C300.124 343.819 299.992 344.407 299.728 344.935C299.464 345.469 299.104 345.925 298.648 346.303C298.192 346.687 297.67 346.981 297.082 347.185C296.494 347.395 295.876 347.5 295.228 347.5C294.598 347.5 293.992 347.371 293.41 347.113C292.828 346.855 292.312 346.501 291.862 346.051C291.418 345.607 291.079 345.1 290.845 344.53L292.852 343.621C292.972 343.951 293.152 344.239 293.392 344.485C293.638 344.737 293.92 344.932 294.238 345.07C294.556 345.214 294.886 345.286 295.228 345.286C295.576 345.286 295.909 345.238 296.227 345.142C296.551 345.046 296.842 344.905 297.1 344.719C297.358 344.539 297.559 344.317 297.703 344.053C297.853 343.795 297.928 343.501 297.928 343.171V341.902C297.646 342.298 297.292 342.619 296.866 342.865C296.44 343.111 295.948 343.234 295.39 343.234C294.742 343.234 294.136 343.111 293.572 342.865C293.008 342.619 292.51 342.28 292.078 341.848C291.652 341.41 291.316 340.906 291.07 340.336C290.83 339.766 290.71 339.154 290.71 338.5C290.71 337.846 290.83 337.234 291.07 336.664C291.316 336.094 291.652 335.593 292.078 335.161C292.51 334.723 293.008 334.381 293.572 334.135C294.136 333.889 294.742 333.766 295.39 333.766C295.948 333.766 296.44 333.889 296.866 334.135C297.292 334.375 297.646 334.693 297.928 335.089V334ZM295.417 341.119C295.879 341.119 296.287 341.002 296.641 340.768C297.001 340.528 297.283 340.21 297.487 339.814C297.691 339.412 297.793 338.974 297.793 338.5C297.793 338.02 297.688 337.582 297.478 337.186C297.274 336.79 296.992 336.472 296.632 336.232C296.278 335.992 295.873 335.872 295.417 335.872C294.967 335.872 294.556 335.992 294.184 336.232C293.812 336.466 293.515 336.781 293.293 337.177C293.071 337.573 292.96 338.014 292.96 338.5C292.96 338.986 293.071 339.427 293.293 339.823C293.515 340.219 293.812 340.534 294.184 340.768C294.556 341.002 294.967 341.119 295.417 341.119ZM310.533 337.312V343H308.337V337.888C308.337 337.534 308.25 337.213 308.076 336.925C307.902 336.631 307.668 336.4 307.374 336.232C307.086 336.058 306.765 335.971 306.411 335.971C306.057 335.971 305.733 336.058 305.439 336.232C305.151 336.4 304.92 336.631 304.746 336.925C304.578 337.213 304.494 337.534 304.494 337.888V343H302.298L302.289 334H304.485L304.494 334.801C304.8 334.477 305.166 334.222 305.592 334.036C306.018 333.844 306.477 333.748 306.969 333.748C307.623 333.748 308.22 333.91 308.76 334.234C309.3 334.552 309.729 334.981 310.047 335.521C310.371 336.055 310.533 336.652 310.533 337.312ZM316.65 334H318.846V343H316.65V334ZM317.766 332.839C317.442 332.839 317.169 332.734 316.947 332.524C316.725 332.308 316.614 332.038 316.614 331.714C316.614 331.396 316.725 331.129 316.947 330.913C317.169 330.697 317.439 330.589 317.757 330.589C318.075 330.589 318.342 330.697 318.558 330.913C318.78 331.129 318.891 331.396 318.891 331.714C318.891 332.038 318.783 332.308 318.567 332.524C318.351 332.734 318.084 332.839 317.766 332.839ZM329.183 337.312V343H326.987V337.888C326.987 337.534 326.9 337.213 326.726 336.925C326.552 336.631 326.318 336.4 326.024 336.232C325.736 336.058 325.415 335.971 325.061 335.971C324.707 335.971 324.383 336.058 324.089 336.232C323.801 336.4 323.57 336.631 323.396 336.925C323.228 337.213 323.144 337.534 323.144 337.888V343H320.948L320.939 334H323.135L323.144 334.801C323.45 334.477 323.816 334.222 324.242 334.036C324.668 333.844 325.127 333.748 325.619 333.748C326.273 333.748 326.87 333.91 327.41 334.234C327.95 334.552 328.379 334.981 328.697 335.521C329.021 336.055 329.183 336.652 329.183 337.312Z" fill="white"/>
<defs>
<filter id="filter0_f_1447_17" x="0" y="0" width="293" height="293" filterUnits="userSpaceOnUse" color-interpolation-filters="sRGB">
<feFlood flood-opacity="0" result="BackgroundImageFix"/>
<feBlend mode="normal" in="SourceGraphic" in2="BackgroundImageFix" result="shape"/>
<feGaussianBlur stdDeviation="45" result="effect1_foregroundBlur_1447_17"/>
</filter>
</defs>
</svg>
