<svg width="390" height="400" viewBox="0 0 390 400" fill="none" xmlns="http://www.w3.org/2000/svg">
<path d="M0 80C0 35.8172 35.8172 0 80 0H310C354.183 0 390 35.8172 390 80V400H0V80Z" fill="#E7CECE"/>
<path d="M42.975 104L34.025 69H40.325L46.425 92.925L52.525 69H58.1L64.2 92.925L70.275 69H76.575L67.675 104H60.75L55.3 82.8L49.925 104H42.975ZM88.334 104.65C86.034 104.65 83.934 104.058 82.034 102.875C80.1507 101.692 78.6423 100.1 77.509 98.1C76.3923 96.1 75.834 93.8917 75.834 91.475C75.834 89.6583 76.159 87.9583 76.809 86.375C77.459 84.775 78.3507 83.375 79.484 82.175C80.634 80.9583 81.9673 80.0083 83.484 79.325C85.0007 78.6417 86.6173 78.3 88.334 78.3C90.284 78.3 92.0673 78.7167 93.684 79.55C95.3173 80.3667 96.7007 81.4917 97.834 82.925C98.9673 84.3583 99.7923 85.9917 100.309 87.825C100.826 89.6583 100.942 91.575 100.659 93.575H82.384C82.6173 94.5083 83.0007 95.35 83.534 96.1C84.0673 96.8333 84.7423 97.425 85.559 97.875C86.3757 98.3083 87.3007 98.5333 88.334 98.55C89.4007 98.5667 90.3673 98.3167 91.234 97.8C92.1173 97.2667 92.8507 96.55 93.434 95.65L99.659 97.1C98.6423 99.3167 97.1257 101.133 95.109 102.55C93.0923 103.95 90.834 104.65 88.334 104.65ZM82.184 89H94.484C94.3007 88 93.909 87.1 93.309 86.3C92.7257 85.4833 92.0007 84.8333 91.134 84.35C90.2673 83.8667 89.334 83.625 88.334 83.625C87.334 83.625 86.409 83.8667 85.559 84.35C84.709 84.8167 83.984 85.4583 83.384 86.275C82.8007 87.075 82.4007 87.9833 82.184 89ZM104.336 104V66.5H110.436V104H104.336ZM131.555 96.475L137.055 99.45C135.905 101.017 134.463 102.275 132.73 103.225C130.996 104.175 129.105 104.65 127.055 104.65C124.755 104.65 122.655 104.058 120.755 102.875C118.871 101.692 117.363 100.108 116.23 98.125C115.113 96.125 114.555 93.9167 114.555 91.5C114.555 89.6667 114.88 87.9583 115.53 86.375C116.18 84.775 117.071 83.375 118.205 82.175C119.355 80.9583 120.688 80.0083 122.205 79.325C123.721 78.6417 125.338 78.3 127.055 78.3C129.105 78.3 130.996 78.775 132.73 79.725C134.463 80.675 135.905 81.95 137.055 83.55L131.555 86.5C130.971 85.8333 130.28 85.3167 129.48 84.95C128.696 84.5833 127.888 84.4 127.055 84.4C125.855 84.4 124.771 84.7333 123.805 85.4C122.838 86.05 122.071 86.9167 121.505 88C120.938 89.0667 120.655 90.2333 120.655 91.5C120.655 92.75 120.938 93.9167 121.505 95C122.071 96.0667 122.838 96.925 123.805 97.575C124.771 98.225 125.855 98.55 127.055 98.55C127.921 98.55 128.746 98.3667 129.53 98C130.313 97.6167 130.988 97.1083 131.555 96.475ZM151.762 104.65C149.462 104.65 147.362 104.058 145.462 102.875C143.578 101.692 142.07 100.108 140.937 98.125C139.82 96.125 139.262 93.9167 139.262 91.5C139.262 89.6667 139.587 87.9583 140.237 86.375C140.887 84.775 141.778 83.375 142.912 82.175C144.062 80.9583 145.395 80.0083 146.912 79.325C148.428 78.6417 150.045 78.3 151.762 78.3C154.062 78.3 156.153 78.8917 158.037 80.075C159.937 81.2583 161.445 82.85 162.562 84.85C163.695 86.85 164.262 89.0667 164.262 91.5C164.262 93.3167 163.937 95.0167 163.287 96.6C162.637 98.1833 161.737 99.5833 160.587 100.8C159.453 102 158.128 102.942 156.612 103.625C155.112 104.308 153.495 104.65 151.762 104.65ZM151.762 98.55C152.978 98.55 154.07 98.225 155.037 97.575C156.003 96.925 156.762 96.0667 157.312 95C157.878 93.9333 158.162 92.7667 158.162 91.5C158.162 90.2 157.87 89.0167 157.287 87.95C156.72 86.8667 155.945 86.0083 154.962 85.375C153.995 84.725 152.928 84.4 151.762 84.4C150.562 84.4 149.478 84.725 148.512 85.375C147.545 86.025 146.778 86.8917 146.212 87.975C145.645 89.0583 145.362 90.2333 145.362 91.5C145.362 92.8167 145.653 94.0083 146.237 95.075C146.82 96.1417 147.595 96.9917 148.562 97.625C149.545 98.2417 150.612 98.55 151.762 98.55ZM168.154 104V79H174.254V81.225C175.104 80.325 176.121 79.6167 177.304 79.1C178.488 78.5667 179.763 78.3 181.129 78.3C182.863 78.3 184.454 78.7083 185.904 79.525C187.371 80.3417 188.538 81.4333 189.404 82.8C190.288 81.4333 191.454 80.3417 192.904 79.525C194.354 78.7083 195.946 78.3 197.679 78.3C199.513 78.3 201.171 78.75 202.654 79.65C204.154 80.5333 205.346 81.725 206.229 83.225C207.129 84.7083 207.579 86.3667 207.579 88.2V104H201.479V89.825C201.479 88.8583 201.238 87.975 200.754 87.175C200.288 86.3583 199.654 85.7083 198.854 85.225C198.071 84.725 197.188 84.475 196.204 84.475C195.221 84.475 194.329 84.7167 193.529 85.2C192.746 85.6667 192.113 86.3 191.629 87.1C191.146 87.9 190.904 88.8083 190.904 89.825V104H184.804V89.825C184.804 88.8083 184.571 87.9 184.104 87.1C183.638 86.3 183.004 85.6667 182.204 85.2C181.404 84.7167 180.513 84.475 179.529 84.475C178.563 84.475 177.679 84.725 176.879 85.225C176.079 85.7083 175.438 86.3583 174.954 87.175C174.488 87.975 174.254 88.8583 174.254 89.825V104H168.154ZM223.1 104.65C220.8 104.65 218.7 104.058 216.8 102.875C214.916 101.692 213.408 100.1 212.275 98.1C211.158 96.1 210.6 93.8917 210.6 91.475C210.6 89.6583 210.925 87.9583 211.575 86.375C212.225 84.775 213.116 83.375 214.25 82.175C215.4 80.9583 216.733 80.0083 218.25 79.325C219.766 78.6417 221.383 78.3 223.1 78.3C225.05 78.3 226.833 78.7167 228.45 79.55C230.083 80.3667 231.466 81.4917 232.6 82.925C233.733 84.3583 234.558 85.9917 235.075 87.825C235.591 89.6583 235.708 91.575 235.425 93.575H217.15C217.383 94.5083 217.766 95.35 218.3 96.1C218.833 96.8333 219.508 97.425 220.325 97.875C221.141 98.3083 222.066 98.5333 223.1 98.55C224.166 98.5667 225.133 98.3167 226 97.8C226.883 97.2667 227.616 96.55 228.2 95.65L234.425 97.1C233.408 99.3167 231.891 101.133 229.875 102.55C227.858 103.95 225.6 104.65 223.1 104.65ZM216.95 89H229.25C229.066 88 228.675 87.1 228.075 86.3C227.491 85.4833 226.766 84.8333 225.9 84.35C225.033 83.8667 224.1 83.625 223.1 83.625C222.1 83.625 221.175 83.8667 220.325 84.35C219.475 84.8167 218.75 85.4583 218.15 86.275C217.566 87.075 217.166 87.9833 216.95 89Z" fill="#393432"/>
<rect x="32" y="256" width="325" height="70" rx="35" fill="#FBF2EA"/>
<path d="M168.616 296.234C167.92 296.234 167.251 296.126 166.609 295.91C165.973 295.688 165.415 295.373 164.935 294.965C164.455 294.551 164.11 294.056 163.9 293.48L165.961 292.724C166.045 292.964 166.216 293.183 166.474 293.381C166.732 293.579 167.047 293.738 167.419 293.858C167.791 293.978 168.19 294.038 168.616 294.038C169.054 294.038 169.462 293.972 169.84 293.84C170.224 293.702 170.533 293.513 170.767 293.273C171.001 293.027 171.118 292.742 171.118 292.418C171.118 292.088 170.995 291.818 170.749 291.608C170.503 291.392 170.188 291.221 169.804 291.095C169.42 290.969 169.024 290.873 168.616 290.807C167.722 290.669 166.921 290.456 166.213 290.168C165.505 289.88 164.944 289.481 164.53 288.971C164.122 288.461 163.918 287.801 163.918 286.991C163.918 286.229 164.137 285.563 164.575 284.993C165.013 284.423 165.589 283.979 166.303 283.661C167.017 283.343 167.788 283.184 168.616 283.184C169.306 283.184 169.972 283.292 170.614 283.508C171.256 283.724 171.817 284.039 172.297 284.453C172.783 284.867 173.131 285.365 173.341 285.947L171.271 286.694C171.187 286.454 171.016 286.235 170.758 286.037C170.5 285.839 170.185 285.683 169.813 285.569C169.441 285.449 169.042 285.389 168.616 285.389C168.19 285.383 167.785 285.452 167.401 285.596C167.023 285.734 166.714 285.923 166.474 286.163C166.234 286.403 166.114 286.679 166.114 286.991C166.114 287.393 166.225 287.696 166.447 287.9C166.675 288.104 166.978 288.254 167.356 288.35C167.734 288.44 168.154 288.524 168.616 288.602C169.456 288.734 170.233 288.956 170.947 289.268C171.661 289.58 172.234 289.997 172.666 290.519C173.098 291.035 173.314 291.668 173.314 292.418C173.314 293.18 173.098 293.849 172.666 294.425C172.234 294.995 171.661 295.439 170.947 295.757C170.233 296.075 169.456 296.234 168.616 296.234ZM175.101 287H177.297V296H175.101V287ZM176.217 285.839C175.893 285.839 175.62 285.734 175.398 285.524C175.176 285.308 175.065 285.038 175.065 284.714C175.065 284.396 175.176 284.129 175.398 283.913C175.62 283.697 175.89 283.589 176.208 283.589C176.526 283.589 176.793 283.697 177.009 283.913C177.231 284.129 177.342 284.396 177.342 284.714C177.342 285.038 177.234 285.308 177.018 285.524C176.802 285.734 176.535 285.839 176.217 285.839ZM185.928 287H188.124V296.171C188.124 296.819 187.992 297.407 187.728 297.935C187.464 298.469 187.104 298.925 186.648 299.303C186.192 299.687 185.67 299.981 185.082 300.185C184.494 300.395 183.876 300.5 183.228 300.5C182.598 300.5 181.992 300.371 181.41 300.113C180.828 299.855 180.312 299.501 179.862 299.051C179.418 298.607 179.079 298.1 178.845 297.53L180.852 296.621C180.972 296.951 181.152 297.239 181.392 297.485C181.638 297.737 181.92 297.932 182.238 298.07C182.556 298.214 182.886 298.286 183.228 298.286C183.576 298.286 183.909 298.238 184.227 298.142C184.551 298.046 184.842 297.905 185.1 297.719C185.358 297.539 185.559 297.317 185.703 297.053C185.853 296.795 185.928 296.501 185.928 296.171V294.902C185.646 295.298 185.292 295.619 184.866 295.865C184.44 296.111 183.948 296.234 183.39 296.234C182.742 296.234 182.136 296.111 181.572 295.865C181.008 295.619 180.51 295.28 180.078 294.848C179.652 294.41 179.316 293.906 179.07 293.336C178.83 292.766 178.71 292.154 178.71 291.5C178.71 290.846 178.83 290.234 179.07 289.664C179.316 289.094 179.652 288.593 180.078 288.161C180.51 287.723 181.008 287.381 181.572 287.135C182.136 286.889 182.742 286.766 183.39 286.766C183.948 286.766 184.44 286.889 184.866 287.135C185.292 287.375 185.646 287.693 185.928 288.089V287ZM183.417 294.119C183.879 294.119 184.287 294.002 184.641 293.768C185.001 293.528 185.283 293.21 185.487 292.814C185.691 292.412 185.793 291.974 185.793 291.5C185.793 291.02 185.688 290.582 185.478 290.186C185.274 289.79 184.992 289.472 184.632 289.232C184.278 288.992 183.873 288.872 183.417 288.872C182.967 288.872 182.556 288.992 182.184 289.232C181.812 289.466 181.515 289.781 181.293 290.177C181.071 290.573 180.96 291.014 180.96 291.5C180.96 291.986 181.071 292.427 181.293 292.823C181.515 293.219 181.812 293.534 182.184 293.768C182.556 294.002 182.967 294.119 183.417 294.119ZM198.533 290.312V296H196.337V290.888C196.337 290.534 196.25 290.213 196.076 289.925C195.902 289.631 195.668 289.4 195.374 289.232C195.086 289.058 194.765 288.971 194.411 288.971C194.057 288.971 193.733 289.058 193.439 289.232C193.151 289.4 192.92 289.631 192.746 289.925C192.578 290.213 192.494 290.534 192.494 290.888V296H190.298L190.289 287H192.485L192.494 287.801C192.8 287.477 193.166 287.222 193.592 287.036C194.018 286.844 194.477 286.748 194.969 286.748C195.623 286.748 196.22 286.91 196.76 287.234C197.3 287.552 197.729 287.981 198.047 288.521C198.371 289.055 198.533 289.652 198.533 290.312ZM204.29 292.67V287H206.486V292.094C206.486 292.448 206.573 292.772 206.747 293.066C206.921 293.354 207.152 293.585 207.44 293.759C207.734 293.927 208.055 294.011 208.403 294.011C208.763 294.011 209.087 293.927 209.375 293.759C209.663 293.585 209.894 293.354 210.068 293.066C210.242 292.772 210.329 292.448 210.329 292.094V287H212.525L212.534 296H210.338L210.329 295.181C210.017 295.505 209.648 295.763 209.222 295.955C208.796 296.141 208.34 296.234 207.854 296.234C207.2 296.234 206.603 296.075 206.063 295.757C205.523 295.433 205.091 295.004 204.767 294.47C204.449 293.93 204.29 293.33 204.29 292.67ZM216.128 300.5H213.932V287H216.128V288.143C216.422 287.735 216.782 287.405 217.208 287.153C217.64 286.895 218.144 286.766 218.72 286.766C219.38 286.766 219.995 286.889 220.565 287.135C221.135 287.381 221.636 287.723 222.068 288.161C222.506 288.593 222.845 289.094 223.085 289.664C223.331 290.234 223.454 290.846 223.454 291.5C223.454 292.154 223.331 292.769 223.085 293.345C222.845 293.921 222.506 294.428 222.068 294.866C221.636 295.298 221.135 295.637 220.565 295.883C219.995 296.129 219.38 296.252 218.72 296.252C218.144 296.252 217.64 296.126 217.208 295.874C216.782 295.616 216.422 295.283 216.128 294.875V300.5ZM218.693 288.881C218.237 288.881 217.829 289.001 217.469 289.241C217.109 289.475 216.827 289.79 216.623 290.186C216.419 290.582 216.317 291.02 216.317 291.5C216.317 291.98 216.419 292.421 216.623 292.823C216.827 293.219 217.109 293.537 217.469 293.777C217.829 294.011 218.237 294.128 218.693 294.128C219.155 294.128 219.578 294.011 219.962 293.777C220.346 293.543 220.652 293.228 220.88 292.832C221.108 292.43 221.222 291.986 221.222 291.5C221.222 291.02 221.108 290.582 220.88 290.186C220.652 289.79 220.346 289.475 219.962 289.241C219.584 289.001 219.161 288.881 218.693 288.881Z" fill="black"/>
<rect x="32" y="156" width="325" height="70" rx="35" fill="#393432"/>
<path d="M169.616 196.234C168.92 196.234 168.251 196.126 167.609 195.91C166.973 195.688 166.415 195.373 165.935 194.965C165.455 194.551 165.11 194.056 164.9 193.48L166.961 192.724C167.045 192.964 167.216 193.183 167.474 193.381C167.732 193.579 168.047 193.738 168.419 193.858C168.791 193.978 169.19 194.038 169.616 194.038C170.054 194.038 170.462 193.972 170.84 193.84C171.224 193.702 171.533 193.513 171.767 193.273C172.001 193.027 172.118 192.742 172.118 192.418C172.118 192.088 171.995 191.818 171.749 191.608C171.503 191.392 171.188 191.221 170.804 191.095C170.42 190.969 170.024 190.873 169.616 190.807C168.722 190.669 167.921 190.456 167.213 190.168C166.505 189.88 165.944 189.481 165.53 188.971C165.122 188.461 164.918 187.801 164.918 186.991C164.918 186.229 165.137 185.563 165.575 184.993C166.013 184.423 166.589 183.979 167.303 183.661C168.017 183.343 168.788 183.184 169.616 183.184C170.306 183.184 170.972 183.292 171.614 183.508C172.256 183.724 172.817 184.039 173.297 184.453C173.783 184.867 174.131 185.365 174.341 185.947L172.271 186.694C172.187 186.454 172.016 186.235 171.758 186.037C171.5 185.839 171.185 185.683 170.813 185.569C170.441 185.449 170.042 185.389 169.616 185.389C169.19 185.383 168.785 185.452 168.401 185.596C168.023 185.734 167.714 185.923 167.474 186.163C167.234 186.403 167.114 186.679 167.114 186.991C167.114 187.393 167.225 187.696 167.447 187.9C167.675 188.104 167.978 188.254 168.356 188.35C168.734 188.44 169.154 188.524 169.616 188.602C170.456 188.734 171.233 188.956 171.947 189.268C172.661 189.58 173.234 189.997 173.666 190.519C174.098 191.035 174.314 191.668 174.314 192.418C174.314 193.18 174.098 193.849 173.666 194.425C173.234 194.995 172.661 195.439 171.947 195.757C171.233 196.075 170.456 196.234 169.616 196.234ZM176.101 187H178.297V196H176.101V187ZM177.217 185.839C176.893 185.839 176.62 185.734 176.398 185.524C176.176 185.308 176.065 185.038 176.065 184.714C176.065 184.396 176.176 184.129 176.398 183.913C176.62 183.697 176.89 183.589 177.208 183.589C177.526 183.589 177.793 183.697 178.009 183.913C178.231 184.129 178.342 184.396 178.342 184.714C178.342 185.038 178.234 185.308 178.018 185.524C177.802 185.734 177.535 185.839 177.217 185.839ZM186.928 187H189.124V196.171C189.124 196.819 188.992 197.407 188.728 197.935C188.464 198.469 188.104 198.925 187.648 199.303C187.192 199.687 186.67 199.981 186.082 200.185C185.494 200.395 184.876 200.5 184.228 200.5C183.598 200.5 182.992 200.371 182.41 200.113C181.828 199.855 181.312 199.501 180.862 199.051C180.418 198.607 180.079 198.1 179.845 197.53L181.852 196.621C181.972 196.951 182.152 197.239 182.392 197.485C182.638 197.737 182.92 197.932 183.238 198.07C183.556 198.214 183.886 198.286 184.228 198.286C184.576 198.286 184.909 198.238 185.227 198.142C185.551 198.046 185.842 197.905 186.1 197.719C186.358 197.539 186.559 197.317 186.703 197.053C186.853 196.795 186.928 196.501 186.928 196.171V194.902C186.646 195.298 186.292 195.619 185.866 195.865C185.44 196.111 184.948 196.234 184.39 196.234C183.742 196.234 183.136 196.111 182.572 195.865C182.008 195.619 181.51 195.28 181.078 194.848C180.652 194.41 180.316 193.906 180.07 193.336C179.83 192.766 179.71 192.154 179.71 191.5C179.71 190.846 179.83 190.234 180.07 189.664C180.316 189.094 180.652 188.593 181.078 188.161C181.51 187.723 182.008 187.381 182.572 187.135C183.136 186.889 183.742 186.766 184.39 186.766C184.948 186.766 185.44 186.889 185.866 187.135C186.292 187.375 186.646 187.693 186.928 188.089V187ZM184.417 194.119C184.879 194.119 185.287 194.002 185.641 193.768C186.001 193.528 186.283 193.21 186.487 192.814C186.691 192.412 186.793 191.974 186.793 191.5C186.793 191.02 186.688 190.582 186.478 190.186C186.274 189.79 185.992 189.472 185.632 189.232C185.278 188.992 184.873 188.872 184.417 188.872C183.967 188.872 183.556 188.992 183.184 189.232C182.812 189.466 182.515 189.781 182.293 190.177C182.071 190.573 181.96 191.014 181.96 191.5C181.96 191.986 182.071 192.427 182.293 192.823C182.515 193.219 182.812 193.534 183.184 193.768C183.556 194.002 183.967 194.119 184.417 194.119ZM199.533 190.312V196H197.337V190.888C197.337 190.534 197.25 190.213 197.076 189.925C196.902 189.631 196.668 189.4 196.374 189.232C196.086 189.058 195.765 188.971 195.411 188.971C195.057 188.971 194.733 189.058 194.439 189.232C194.151 189.4 193.92 189.631 193.746 189.925C193.578 190.213 193.494 190.534 193.494 190.888V196H191.298L191.289 187H193.485L193.494 187.801C193.8 187.477 194.166 187.222 194.592 187.036C195.018 186.844 195.477 186.748 195.969 186.748C196.623 186.748 197.22 186.91 197.76 187.234C198.3 187.552 198.729 187.981 199.047 188.521C199.371 189.055 199.533 189.652 199.533 190.312ZM205.65 187H207.846V196H205.65V187ZM206.766 185.839C206.442 185.839 206.169 185.734 205.947 185.524C205.725 185.308 205.614 185.038 205.614 184.714C205.614 184.396 205.725 184.129 205.947 183.913C206.169 183.697 206.439 183.589 206.757 183.589C207.075 183.589 207.342 183.697 207.558 183.913C207.78 184.129 207.891 184.396 207.891 184.714C207.891 185.038 207.783 185.308 207.567 185.524C207.351 185.734 207.084 185.839 206.766 185.839ZM218.183 190.312V196H215.987V190.888C215.987 190.534 215.9 190.213 215.726 189.925C215.552 189.631 215.318 189.4 215.024 189.232C214.736 189.058 214.415 188.971 214.061 188.971C213.707 188.971 213.383 189.058 213.089 189.232C212.801 189.4 212.57 189.631 212.396 189.925C212.228 190.213 212.144 190.534 212.144 190.888V196H209.948L209.939 187H212.135L212.144 187.801C212.45 187.477 212.816 187.222 213.242 187.036C213.668 186.844 214.127 186.748 214.619 186.748C215.273 186.748 215.87 186.91 216.41 187.234C216.95 187.552 217.379 187.981 217.697 188.521C218.021 189.055 218.183 189.652 218.183 190.312Z" fill="white"/>
</svg>
